<?xml version="1.0" encoding="UTF-8" standalone="no"?>
<svg
   xmlns:dc="http://purl.org/dc/elements/1.1/"
   xmlns:cc="http://creativecommons.org/ns#"
   xmlns:rdf="http://www.w3.org/1999/02/22-rdf-syntax-ns#"
   xmlns:svg="http://www.w3.org/2000/svg"
   xmlns="http://www.w3.org/2000/svg"
   version="1.1"
   id="Слой_1"
   x="0px"
   y="0px"
   viewBox="-463.5 262.5 993.14722 880.35211"
   xml:space="preserve"
   width="993.14722"
   height="880.35211"><metadata
     id="metadata13"><rdf:RDF><cc:Work
         rdf:about=""><dc:format>image/svg+xml</dc:format><dc:type
           rdf:resource="http://purl.org/dc/dcmitype/StillImage" /><dc:title></dc:title></cc:Work></rdf:RDF></metadata><defs
     id="defs11" /><style
     type="text/css"
     id="style3">
	.st0{fill:#444444;}
	.st1{fill:none;stroke:#444444;stroke-width:3;stroke-miterlimit:10;}
</style><path
     class="st0"
     d="m -48.083832,262.5 0,0 c 228.341322,0 412.665042,148.55942 412.665042,332.88314 0,184.32373 -184.32372,332.88309 -412.665042,332.88309 -22.008799,0 -44.017612,-2.7511 -63.275318,-2.7511 -88.03521,88.03517 -189.82592,104.54177 -294.36773,107.29297 l 0,-22.0088 c 55.02199,-27.51107 99.03961,-77.03087 99.03961,-132.05287 0,-8.25325 0,-16.5065 -2.75111,-22.00871 C -402.97579,796.21351 -463.5,702.67606 -463.5,598.13423 -460.74889,411.05942 -276.42517,262.5 -48.083832,262.5 l 0,0 z m 442.927142,748.2993 c 0,46.7687 30.2621,90.7863 79.78191,112.795 l 0,19.2578 c -88.03521,-2.7512 -170.56821,-16.5066 -247.59902,-90.7863 -19.25771,2.751 -35.76431,2.751 -55.02201,2.751 -82.533008,0 -156.812719,-22.0087 -217.33693,-60.52417 123.799521,0 242.09683,-41.2665 330.13204,-112.795 44.01761,-35.76434 79.78191,-79.78191 104.54181,-126.55067 27.51101,-49.51981 38.51541,-104.54182 38.51541,-159.56382 0,-8.2533 0,-19.2577 0,-27.51101 63.2753,52.27092 101.79071,121.04842 101.79071,198.07923 0,90.78636 -52.27092,170.56827 -132.05282,222.83907 -2.7511,8.2534 -2.7511,16.50657 -2.7511,22.00887 z"
     id="path5"
     style="fill:#444444" /></svg>