<?xml version="1.0" encoding="UTF-8" standalone="no"?>
<svg
   xmlns:dc="http://purl.org/dc/elements/1.1/"
   xmlns:cc="http://creativecommons.org/ns#"
   xmlns:rdf="http://www.w3.org/1999/02/22-rdf-syntax-ns#"
   xmlns:svg="http://www.w3.org/2000/svg"
   xmlns="http://www.w3.org/2000/svg"
   id="svg2"
   viewBox="0 0 993.39105 993.39105"
   height="993.39105"
   width="993.39105"
   version="1.1">
  <metadata
     id="metadata10">
    <rdf:RDF>
      <cc:Work
         rdf:about="">
        <dc:format>image/svg+xml</dc:format>
        <dc:type
           rdf:resource="http://purl.org/dc/dcmitype/StillImage" />
        <dc:title></dc:title>
      </cc:Work>
    </rdf:RDF>
  </metadata>
  <defs
     id="defs8" />
  <path
     style="fill:#444444"
     id="path4"
     d="M 397.35642,0 66.226069,0 C 29.801731,0 0,29.801732 0,66.22607 l 0,331.13035 c 0,36.42433 29.801731,66.22607 66.226069,66.22607 l 331.130351,0 c 36.42433,0 66.22607,-29.80174 66.22607,-66.22607 l 0,-331.13035 C 463.58249,29.801732 433.78075,0 397.35642,0 Z m 0,264.90428 -331.130351,0 0,-66.22607 331.130351,0 0,66.22607 z M 927.16497,0 596.03462,0 c -36.42433,0 -66.22607,29.801732 -66.22607,66.22607 l 0,860.9389 c 0,36.42434 29.80174,66.22607 66.22607,66.22607 l 331.13035,0 c 36.42434,0 66.22607,-29.80173 66.22607,-66.22607 l 0,-860.9389 C 993.39104,29.801732 963.58931,0 927.16497,0 Z m 0,596.03462 -331.13035,0 0,-66.22607 331.13035,0 0,66.22607 z m 0,-198.6782 -331.13035,0 0,-66.22607 331.13035,0 0,66.22607 z m -529.80855,132.45213 -331.130351,0 C 29.801731,529.80855 0,559.61029 0,596.03462 l 0,331.13035 c 0,36.42434 29.801731,66.22607 66.226069,66.22607 l 331.130351,0 c 36.42433,0 66.22607,-29.80173 66.22607,-66.22607 l 0,-331.13035 c 0,-36.42433 -29.80174,-66.22607 -66.22607,-66.22607 z m 0,264.90428 -132.45214,0 0,132.45214 -66.22607,0 0,-132.45214 -132.452141,0 0,-66.22607 132.452141,0 0,-132.45214 66.22607,0 0,132.45214 132.45214,0 0,66.22607 z" />
</svg>
