<?xml version="1.0" encoding="UTF-8" standalone="no"?>
<svg
   xmlns:dc="http://purl.org/dc/elements/1.1/"
   xmlns:cc="http://creativecommons.org/ns#"
   xmlns:rdf="http://www.w3.org/1999/02/22-rdf-syntax-ns#"
   xmlns:svg="http://www.w3.org/2000/svg"
   xmlns="http://www.w3.org/2000/svg"
   id="svg2"
   viewBox="0 0 991.67517 991.67517"
   height="991.67517"
   width="991.67517"
   version="1.1">
  <metadata
     id="metadata12">
    <rdf:RDF>
      <cc:Work
         rdf:about="">
        <dc:format>image/svg+xml</dc:format>
        <dc:type
           rdf:resource="http://purl.org/dc/dcmitype/StillImage" />
        <dc:title></dc:title>
      </cc:Work>
    </rdf:RDF>
  </metadata>
  <defs
     id="defs10" />
  <path
     style="fill:#444444"
     id="path4"
     d="M 495.83761,0 C 221.98029,0 0,221.98029 0,495.83759 0,769.69491 221.98029,991.6752 495.83761,991.6752 769.69491,991.6752 991.6752,769.69491 991.6752,495.83759 991.6752,221.98029 769.69491,0 495.83761,0 Z m 0,898.70565 c -222.50713,0 -402.868061,-180.36093 -402.868061,-402.86806 0,-222.50711 180.360931,-402.86804 402.868061,-402.86804 222.50711,0 402.86804,180.36093 402.86804,402.86804 0,222.50713 -180.36093,402.86806 -402.86804,402.86806 z" />
  <path
     style="fill:#444444"
     id="path6"
     d="M 650.78684,247.9188 495.83761,402.86807 340.88836,247.9188 247.91881,340.88836 402.86807,495.83759 247.91881,650.78684 340.88836,743.75639 495.83761,588.80713 650.78684,743.75639 743.7564,650.78684 588.80713,495.83759 743.7564,340.88836 Z" />
</svg>
