<?xml version="1.0" encoding="UTF-8" standalone="no"?>
<svg
   xmlns:dc="http://purl.org/dc/elements/1.1/"
   xmlns:cc="http://creativecommons.org/ns#"
   xmlns:rdf="http://www.w3.org/1999/02/22-rdf-syntax-ns#"
   xmlns:svg="http://www.w3.org/2000/svg"
   xmlns="http://www.w3.org/2000/svg"
   id="svg2"
   viewBox="0 0 998.45917 998.45917"
   height="998.45917"
   width="998.45917"
   version="1.1">
  <metadata
     id="metadata12">
    <rdf:RDF>
      <cc:Work
         rdf:about="">
        <dc:format>image/svg+xml</dc:format>
        <dc:type
           rdf:resource="http://purl.org/dc/dcmitype/StillImage" />
        <dc:title></dc:title>
      </cc:Work>
    </rdf:RDF>
  </metadata>
  <defs
     id="defs10" />
  <path
     style="fill:#444444"
     id="path4"
     d="m 0,499.22958 c 0,275.73074 223.49884,499.22958 499.22958,499.22958 275.73074,0 499.22958,-223.49884 499.22958,-499.22958 C 998.45916,223.49884 774.96032,0 499.22958,0 223.49884,0 0,223.49884 0,499.22958 Z m 904.85362,0 c 0,224.02927 -181.59476,405.62403 -405.62404,405.62403 -224.02927,0 -405.624033,-181.59476 -405.624033,-405.62403 0,-224.02928 181.594763,-405.624033 405.624033,-405.624033 224.02928,0 405.62404,181.594753 405.62404,405.624033 z" />
  <path
     style="fill:#444444"
     id="path6"
     d="M 689.12403,652.55546 777.39407,564.28543 499.26078,286.15215 221.1275,564.28543 309.36633,652.52426 499.26078,462.62981 Z" />
</svg>
