<?xml version="1.0" encoding="UTF-8" standalone="no"?>
<svg
   xmlns:dc="http://purl.org/dc/elements/1.1/"
   xmlns:cc="http://creativecommons.org/ns#"
   xmlns:rdf="http://www.w3.org/1999/02/22-rdf-syntax-ns#"
   xmlns:svg="http://www.w3.org/2000/svg"
   xmlns="http://www.w3.org/2000/svg"
   id="svg2"
   viewBox="0 0 1001.7627 1001.7627"
   height="1001.7627"
   width="1001.7627"
   version="1.1">
  <metadata
     id="metadata10">
    <rdf:RDF>
      <cc:Work
         rdf:about="">
        <dc:format>image/svg+xml</dc:format>
        <dc:type
           rdf:resource="http://purl.org/dc/dcmitype/StillImage" />
        <dc:title></dc:title>
      </cc:Work>
    </rdf:RDF>
  </metadata>
  <defs
     id="defs8" />
  <path
     style="fill:#444444"
     id="path4"
     d="m 644.44647,732.97725 -206.17528,-206.17528 0,-276.36129 125.22033,0 0,224.52006 169.48573,169.48573 z M 500.88135,0 C 224.23832,0 0,224.23832 0,500.88136 c 0,276.64303 224.23832,500.88134 500.88135,500.88134 276.64304,0 500.88135,-224.23831 500.88135,-500.88134 C 1001.7627,224.23832 777.52439,0 500.88135,0 Z m 0,876.54237 c -207.45879,0 -375.66101,-168.20222 -375.66101,-375.66101 0,-207.4588 168.20222,-375.66102 375.66101,-375.66102 207.4588,0 375.66102,168.20222 375.66102,375.66102 0,207.45879 -168.20222,375.66101 -375.66102,375.66101 z" />
</svg>
