<?xml version="1.0" encoding="UTF-8" standalone="no"?>
<svg
   xmlns:dc="http://purl.org/dc/elements/1.1/"
   xmlns:cc="http://creativecommons.org/ns#"
   xmlns:rdf="http://www.w3.org/1999/02/22-rdf-syntax-ns#"
   xmlns:svg="http://www.w3.org/2000/svg"
   xmlns="http://www.w3.org/2000/svg"
   id="svg2"
   viewBox="0 0 993.08472 993.08472"
   height="993.08472"
   width="993.08472"
   version="1.1">
  <metadata
     id="metadata14">
    <rdf:RDF>
      <cc:Work
         rdf:about="">
        <dc:format>image/svg+xml</dc:format>
        <dc:type
           rdf:resource="http://purl.org/dc/dcmitype/StillImage" />
        <dc:title></dc:title>
      </cc:Work>
    </rdf:RDF>
  </metadata>
  <defs
     id="defs12" />
  <path
     style="fill:#444444"
     id="path4"
     d="m 434.47458,294.82203 c 0,-25.60297 20.94788,-46.55085 46.55084,-46.55085 l 31.0339,0 c 25.60297,0 46.55085,20.94788 46.55085,46.55085 l 0,31.0339 c 0,25.60296 -20.94788,46.55085 -46.55085,46.55085 l -31.0339,0 c -25.60296,0 -46.55084,-20.94789 -46.55084,-46.55085 l 0,-31.0339 z" />
  <path
     style="fill:#444444"
     id="path6"
     d="m 620.67796,744.81355 -248.27118,0 0,-62.06779 62.0678,0 0,-186.20339 -62.0678,0 0,-62.0678 186.20339,0 0,248.27119 62.06779,0 z" />
  <path
     style="fill:#444444"
     id="path8"
     d="M 496.54237,0 C 222.29581,0 0,222.29581 0,496.54237 c 0,274.24656 222.29581,496.54237 496.54237,496.54237 274.24656,0 496.54237,-222.29581 496.54237,-496.54237 C 993.08474,222.29581 770.78893,0 496.54237,0 Z m 0,899.98305 c -222.82339,0 -403.440675,-180.61729 -403.440675,-403.44068 0,-222.82339 180.617285,-403.440676 403.440675,-403.440676 222.82339,0 403.44068,180.617286 403.44068,403.440676 0,222.82339 -180.61729,403.44068 -403.44068,403.44068 z" />
</svg>
