<?xml version="1.0" encoding="UTF-8" standalone="no"?>
<svg
   xmlns:dc="http://purl.org/dc/elements/1.1/"
   xmlns:cc="http://creativecommons.org/ns#"
   xmlns:rdf="http://www.w3.org/1999/02/22-rdf-syntax-ns#"
   xmlns:svg="http://www.w3.org/2000/svg"
   xmlns="http://www.w3.org/2000/svg"
   id="svg2"
   viewBox="0 0 997.42371 997.42371"
   height="997.42371"
   width="997.42371"
   version="1.1">
  <metadata
     id="metadata10">
    <rdf:RDF>
      <cc:Work
         rdf:about="">
        <dc:format>image/svg+xml</dc:format>
        <dc:type
           rdf:resource="http://purl.org/dc/dcmitype/StillImage" />
        <dc:title></dc:title>
      </cc:Work>
    </rdf:RDF>
  </metadata>
  <defs
     id="defs8" />
  <path
     style="fill:#444444"
     id="path4"
     d="M 498.71186,93.508475 C 390.49139,93.508475 288.723,135.64963 212.2019,212.2019 135.6808,288.75417 93.508474,390.49139 93.508474,498.71187 c 0,108.22047 42.141156,209.98886 118.693426,286.50996 76.55227,76.5211 178.28949,118.69343 286.50996,118.69343 108.22048,0 209.98887,-42.14116 286.50997,-118.69343 C 861.74293,708.66956 903.91525,606.93234 903.91525,498.71187 903.91525,390.49139 861.7741,288.723 785.22183,212.2019 708.66956,135.6808 606.93234,93.508475 498.71186,93.508475 Z m 0,-93.508475 0,0 c 275.4448,0 498.71187,223.26707 498.71187,498.71187 0,275.44479 -223.26707,498.71186 -498.71187,498.71186 C 223.26707,997.42373 0,774.15666 0,498.71187 0,223.26707 223.26707,0 498.71186,0 Z m -62.33898,685.72882 124.67797,0 0,124.67796 -124.67797,0 z m 0,-498.71187 124.67797,0 0,374.0339 -124.67797,0 z" />
</svg>
