<?xml version="1.0" encoding="UTF-8" standalone="no"?>
<svg
   xmlns:dc="http://purl.org/dc/elements/1.1/"
   xmlns:cc="http://creativecommons.org/ns#"
   xmlns:rdf="http://www.w3.org/1999/02/22-rdf-syntax-ns#"
   xmlns:svg="http://www.w3.org/2000/svg"
   xmlns="http://www.w3.org/2000/svg"
   id="svg2"
   viewBox="0 0 1001.5273 1001.5273"
   height="1001.5273"
   width="1001.5273"
   version="1.1">
  <metadata
     id="metadata10">
    <rdf:RDF>
      <cc:Work
         rdf:about="">
        <dc:format>image/svg+xml</dc:format>
        <dc:type
           rdf:resource="http://purl.org/dc/dcmitype/StillImage" />
        <dc:title></dc:title>
      </cc:Work>
    </rdf:RDF>
  </metadata>
  <defs
     id="defs8" />
  <path
     style="fill:#444444"
     id="path4"
     d="m 438.16819,688.55001 125.19091,0 0,125.19091 -125.19091,0 z M 688.55001,250.38182 c 34.58399,0 62.59546,28.01147 62.59546,62.59546 l 0,187.78637 -187.78637,125.19091 -125.19091,0 0,-62.59546 187.78637,-125.19091 0,-62.59546 -312.97728,0 0,-125.19091 375.57273,0 z M 500.76364,93.893184 c -108.66571,0 -210.85279,42.314526 -287.68871,119.181746 -76.83592,76.86722 -119.181747,179.023 -119.181747,287.68872 0,108.66571 42.314527,210.85279 119.181747,287.68871 76.86722,76.83592 179.023,119.18175 287.68871,119.18175 108.66572,0 210.8528,-42.31453 287.68872,-119.18175 76.83592,-76.86722 119.18175,-179.023 119.18175,-287.68871 0,-108.66572 -42.31453,-210.8528 -119.18175,-287.68872 C 711.58514,136.23901 609.42936,93.893184 500.76364,93.893184 Z m 0,-93.893184 0,0 c 276.57802,0 500.76366,224.18563 500.76366,500.76365 0,276.57802 -224.18564,500.76365 -500.76366,500.76365 C 224.18562,1001.5273 0,777.34167 0,500.76365 0,224.18563 224.18562,0 500.76364,0 Z" />
</svg>
