<?xml version="1.0" encoding="UTF-8" standalone="no"?>
<svg
   xmlns:dc="http://purl.org/dc/elements/1.1/"
   xmlns:cc="http://creativecommons.org/ns#"
   xmlns:rdf="http://www.w3.org/1999/02/22-rdf-syntax-ns#"
   xmlns:svg="http://www.w3.org/2000/svg"
   xmlns="http://www.w3.org/2000/svg"
   id="svg2"
   viewBox="0 0 1001.5284 1001.5175"
   height="1001.5175"
   width="1001.5284"
   version="1.1">
  <metadata
     id="metadata10">
    <rdf:RDF>
      <cc:Work
         rdf:about="">
        <dc:format>image/svg+xml</dc:format>
        <dc:type
           rdf:resource="http://purl.org/dc/dcmitype/StillImage" />
        <dc:title></dc:title>
      </cc:Work>
    </rdf:RDF>
  </metadata>
  <defs
     id="defs8" />
  <path
     style="fill:#444444"
     id="path4"
     d="M 970.47927,852.27165 733.25031,650.50185 C 708.7137,628.43768 682.48707,618.29755 661.2992,619.26775 717.289,553.66987 751.12072,468.57415 751.12072,375.56037 751.12072,168.15716 582.96357,0 375.56036,0 168.15715,0 0,168.15716 0,375.56037 c 0,207.40321 168.15715,375.56036 375.56036,375.56036 93.01379,0 178.1095,-33.83173 243.70738,-89.82152 -0.9702,21.18786 9.16993,47.4145 31.2341,71.95111 l 201.76981,237.22896 c 34.55155,38.36972 90.9795,41.62462 125.40586,7.19824 34.42639,-34.42637 31.20279,-90.85431 -7.19824,-125.40587 z M 375.59166,625.96524 c -138.26881,0 -250.37358,-112.10477 -250.37358,-250.37358 0,-138.2688 112.10477,-250.37357 250.37358,-250.37357 138.26881,0 250.37357,112.10477 250.37357,250.37357 0,138.26881 -112.10476,250.37358 -250.37357,250.37358 z" />
</svg>
