<?xml version="1.0" encoding="UTF-8" standalone="no"?>
<svg
   xmlns:dc="http://purl.org/dc/elements/1.1/"
   xmlns:cc="http://creativecommons.org/ns#"
   xmlns:rdf="http://www.w3.org/1999/02/22-rdf-syntax-ns#"
   xmlns:svg="http://www.w3.org/2000/svg"
   xmlns="http://www.w3.org/2000/svg"
   id="svg2"
   viewBox="0 0 1014.7797 951.35596"
   height="951.35596"
   width="1014.7797"
   version="1.1">
  <metadata
     id="metadata10">
    <rdf:RDF>
      <cc:Work
         rdf:about="">
        <dc:format>image/svg+xml</dc:format>
        <dc:type
           rdf:resource="http://purl.org/dc/dcmitype/StillImage" />
        <dc:title></dc:title>
      </cc:Work>
    </rdf:RDF>
  </metadata>
  <defs
     id="defs8" />
  <path
     style="fill:#444444"
     id="path4"
     d="m 967.21186,697.66102 -15.85593,0 0,-206.12712 c 0,-61.2039 -49.78763,-110.99153 -110.99152,-110.99153 l -269.55085,0 0,-126.84746 15.85593,0 c 26.16229,0 47.5678,-21.4055 47.5678,-47.56779 l 0,-158.559324 C 634.23729,21.405508 612.83178,0 586.66949,0 L 428.11017,0 c -26.16229,0 -47.5678,21.405508 -47.5678,47.567796 l 0,158.559324 c 0,26.16229 21.40551,47.56779 47.5678,47.56779 l 15.85593,0 0,126.84746 -269.55085,0 c -61.20389,0 -110.991521,49.78763 -110.991521,110.99153 l 0,206.12712 -15.855932,0 C 21.405508,697.66102 0,719.06652 0,745.22881 l 0,158.55932 c 0,26.16229 21.405508,47.5678 47.567797,47.5678 l 158.559323,0 c 26.16229,0 47.56779,-21.40551 47.56779,-47.5678 l 0,-158.55932 c 0,-26.16229 -21.4055,-47.56779 -47.56779,-47.56779 l -15.85593,0 0,-190.27119 253.69491,0 0,190.27119 -15.85593,0 c -26.16229,0 -47.5678,21.4055 -47.5678,47.56779 l 0,158.55932 c 0,26.16229 21.40551,47.5678 47.5678,47.5678 l 158.55932,0 c 26.16229,0 47.5678,-21.40551 47.5678,-47.5678 l 0,-158.55932 c 0,-26.16229 -21.40551,-47.56779 -47.5678,-47.56779 l -15.85593,0 0,-190.27119 253.69491,0 0,190.27119 -15.85593,0 c -26.16229,0 -47.5678,21.4055 -47.5678,47.56779 l 0,158.55932 c 0,26.16229 21.40551,47.5678 47.5678,47.5678 l 158.55932,0 c 26.16229,0 47.56784,-21.40551 47.56784,-47.5678 l 0,-158.55932 c 0,-26.16229 -21.40555,-47.56779 -47.56784,-47.56779 z m -776.94067,190.27118 -126.847461,0 0,-126.84746 126.847461,0 0,126.84746 z m 380.54237,0 -126.84746,0 0,-126.84746 126.84746,0 0,126.84746 z M 443.9661,190.27119 l 0,-126.84746 126.84746,0 0,126.84746 -126.84746,0 z m 507.38983,697.66101 -126.84746,0 0,-126.84746 126.84746,0 0,126.84746 z" />
</svg>
